<?xml version="1.0" standalone="no"?>
<!DOCTYPE svg PUBLIC "-//W3C//DTD SVG 20010904//EN"
 "http://www.w3.org/TR/2001/REC-SVG-20010904/DTD/svg10.dtd">
<svg version="1.0" xmlns="http://www.w3.org/2000/svg"
 width="1190.000000pt" height="1190.000000pt" viewBox="0 0 1190.000000 1190.000000"
 preserveAspectRatio="xMidYMid meet">
<metadata>
Created by potrace 1.14, written by Peter Selinger 2001-2017
</metadata>
<g transform="translate(0.000000,1190.000000) scale(0.100000,-0.100000)"
fill="#000000" stroke="none">
<path d="M490 5945 l0 -3405 3894 0 3894 0 385 391 385 392 54 -21 c128 -51
165 -57 338 -57 160 1 168 2 262 34 233 80 420 245 523 462 59 126 78 214 78
369 0 160 -19 245 -86 385 -210 435 -738 615 -1171 399 -178 -89 -309 -221
-397 -399 -57 -116 -79 -202 -86 -335 -7 -135 5 -214 50 -348 l31 -93 -304
-304 -305 -305 -3487 0 -3488 0 0 2835 0 2835 4890 0 4890 0 2 -1397 3 -1398
283 -3 282 -2 0 1685 0 1685 -5460 0 -5460 0 0 -3405z m9077 -1566 c110 -53
165 -143 166 -270 0 -67 -4 -84 -33 -138 -78 -146 -252 -203 -398 -131 -113
57 -167 145 -167 275 0 67 5 88 27 131 46 87 130 149 223 164 62 10 115 1 182
-31z"/>
<path d="M3500 7940 l0 -219 320 -3 c176 -2 325 -1 330 0 6 2 10 86 10 223 l0
219 -330 0 -330 0 0 -220z"/>
<path d="M1740 7145 l0 -965 484 0 c372 0 512 3 598 15 194 25 323 81 415 178
56 59 83 106 107 186 34 116 30 293 -11 416 -23 71 -104 148 -200 190 -2 1 26
30 61 66 77 80 102 139 118 286 32 291 -79 467 -343 548 -117 35 -267 44 -756
45 l-473 0 0 -965z m889 502 c52 -18 74 -55 75 -124 0 -32 -6 -73 -13 -91 -21
-50 -54 -62 -176 -62 l-105 0 0 145 0 145 93 -1 c50 0 107 -5 126 -12z m6
-717 c22 -5 50 -21 63 -35 19 -23 22 -37 22 -110 0 -74 -3 -87 -24 -112 -24
-28 -26 -28 -155 -31 l-131 -4 0 151 0 151 93 0 c50 0 110 -5 132 -10z"/>
<path d="M5160 7652 c-30 -10 -80 -32 -110 -48 -30 -16 -58 -30 -62 -32 -4 -2
-8 12 -10 30 l-3 33 -320 0 -320 0 -3 -727 -2 -728 325 0 325 0 0 454 0 454
28 6 c97 18 109 18 135 -6 48 -44 51 -65 55 -500 l4 -408 325 0 325 0 -5 493
c-4 451 -6 499 -25 582 -28 123 -55 191 -99 249 -83 109 -198 156 -388 162
-97 3 -131 1 -175 -14z"/>
<path d="M6430 7654 c-108 -15 -267 -45 -355 -68 l-50 -13 4 -214 c2 -118 7
-218 12 -223 5 -6 79 -3 186 8 234 22 490 22 521 0 12 -8 22 -21 22 -29 0 -18
-32 -23 -200 -29 -293 -12 -469 -68 -542 -173 -46 -68 -68 -157 -68 -278 0
-223 73 -363 225 -434 164 -78 445 -73 648 10 70 28 72 28 92 10 33 -31 83
-52 158 -67 65 -14 87 -14 224 2 84 10 157 20 163 24 7 5 13 79 17 211 l6 204
-37 13 -36 13 0 317 c0 343 -6 396 -55 492 -60 119 -182 187 -400 225 -113 19
-389 18 -535 -1z m368 -965 c-3 -65 -6 -74 -30 -92 -18 -14 -48 -22 -86 -25
-55 -4 -60 -2 -80 23 -24 30 -28 74 -11 108 21 40 59 54 152 56 l58 1 -3 -71z"/>
<path d="M8463 7640 c-37 -18 -83 -55 -121 -94 l-61 -63 -3 76 -3 76 -322 3
-323 2 0 -730 0 -730 325 0 325 0 0 388 0 389 76 37 c95 46 138 63 187 71 l37
6 0 299 0 300 -28 0 c-16 0 -56 -13 -89 -30z"/>
<path d="M3507 7633 c-4 -3 -7 -332 -7 -730 l0 -723 325 0 325 0 0 730 0 730
-318 0 c-175 0 -322 -3 -325 -7z"/>
<path d="M8677 7633 c-3 -5 13 -114 35 -243 22 -129 77 -453 122 -720 l81
-485 223 -3 c122 -1 222 -5 222 -9 0 -4 -38 -125 -85 -269 -47 -144 -85 -267
-85 -273 0 -8 102 -11 350 -11 l350 0 10 23 c5 12 23 105 40 207 17 102 44
262 60 355 16 94 52 305 80 470 28 165 75 444 105 621 30 176 55 326 55 332 0
9 -84 12 -324 12 l-324 0 -6 -32 c-3 -18 -12 -100 -20 -183 -31 -326 -69 -690
-72 -694 -2 -2 -10 -1 -19 2 -9 4 -15 19 -15 41 0 19 -7 87 -15 153 -15 125
-48 410 -66 578 -6 55 -13 108 -15 118 -5 16 -30 17 -344 17 -186 0 -341 -3
-343 -7z"/>
<path d="M4790 4796 l0 -974 33 -6 c76 -13 398 -47 547 -56 465 -30 740 62
848 283 71 147 105 394 84 624 -20 223 -68 354 -168 462 -139 150 -339 185
-661 116 l-33 -7 0 266 0 266 -325 0 -325 0 0 -974z m801 -56 c42 -23 54 -67
54 -205 0 -147 -11 -191 -56 -230 -31 -25 -77 -32 -127 -19 l-22 6 2 221 3
221 25 7 c39 11 99 10 121 -1z"/>
<path d="M1740 4755 l0 -965 650 0 650 0 0 275 0 275 -315 0 -315 0 0 690 0
690 -335 0 -335 0 0 -965z"/>
<path d="M3675 5274 c-144 -16 -444 -75 -473 -93 -10 -6 -11 -55 -6 -226 l7
-218 81 7 c241 20 334 25 461 26 151 0 188 -9 193 -48 3 -21 1 -22 -81 -22
-135 0 -329 -19 -414 -40 -234 -59 -313 -164 -313 -414 0 -271 98 -414 323
-473 43 -11 104 -16 197 -16 149 1 260 21 365 68 l58 25 27 -25 c42 -41 132
-67 230 -68 86 0 290 21 308 32 5 3 12 97 16 208 l7 202 -36 15 -35 15 0 302
c0 332 -7 402 -51 495 -52 111 -155 181 -332 225 -66 17 -121 21 -287 24 -113
2 -223 1 -245 -1z m295 -973 c0 -66 -1 -71 -31 -92 -59 -42 -144 -43 -175 -2
-19 25 -17 94 4 120 19 26 73 41 150 42 l52 1 0 -69z"/>
<path d="M6839 5265 c-300 -57 -429 -211 -429 -515 0 -235 74 -356 255 -417
33 -11 112 -28 175 -38 144 -22 209 -37 213 -50 1 -5 -20 -14 -47 -19 -51 -10
-207 1 -441 30 -69 9 -128 15 -129 13 -2 -2 -7 -101 -11 -220 l-8 -217 54 -15
c158 -45 524 -74 715 -58 141 13 217 31 301 71 83 41 162 127 194 211 22 58
24 78 24 224 -1 141 -4 167 -23 216 -58 146 -142 202 -350 234 -189 29 -222
36 -250 46 -25 9 -25 11 -9 21 27 14 214 12 352 -6 227 -28 245 -29 245 -14 0
7 5 78 10 158 5 80 10 176 11 215 l2 69 -49 13 c-27 7 -101 22 -164 34 -153
28 -526 36 -641 14z"/>
</g>
</svg>
